<svg xmlns="http://www.w3.org/2000/svg" id="Layer_1" data-name="Layer 1" viewBox="0 0 900 460"><defs><style>.cls-1{fill:#5b5b5b}</style></defs><path d="M681.53,453.3H623.79c-2.54-9-5-18.55-7.94-27.93-6.28-19.75-12.49-39.53-19.42-59.05-6.32-17.83-12.86-35.65-20.61-52.88-5.66-12.57-13.78-24-20.23-36.24-8.28-15.71-18.36-30.08-32.66-40.63-9.37-6.91-20.12-12-30.35-17.68-2.78-1.55-4.87-.73-7,2.16-17.25,22.85-34,46.15-52.36,68.06-22.63,27-52.43,43.5-85.82,54.14-4.45,1.42-7.92,6.12-11.65,9.52-8.59,7.82-18,14-29.59,16.52-18,4-35.41-4.41-44.59-20.45-5.46-9.55-6.91-20.09-9.83-30.3-3-10.42-7.19-20.61-8.9-31.21-1.19-7.45.83-15.43,1.71-23.13.07-.61,2.76-1.7,3.62-1.29,4.14,2,8.2,4,9.9,9.06,3.79,11.21,4,11.13,14.79,6.69,3.38-1.38,6.83-2.6,10.24-3.91a10,10,0,0,0,2.14-1A109.9,109.9,0,0,0,281.28,261c-.41-1-2.95-1.85-4.34-1.64-4.58.69-9.08,1.9-14.16,3l-4.7-9.25,17.25-5.41c-1.57-3.61-2.43-6.91-4.26-9.54-4.14-5.94-2.93-12.19-1.82-18.48.19-1.08,1.42-2.73,2.22-2.76a5.1,5.1,0,0,1,3.77,1.73c5.33,7.14,11,14.09,15.52,21.73,10.34,17.51,16.84,36.73,24.13,55.62,3.9,10.11,8.59,20.23,19.31,25.3a37.79,37.79,0,0,0,10,2.83c1.23.2,3-1,4.07-2,14.72-13.64,26-30.1,37.9-46.06C399,259,412.39,242.24,425.81,225.55c2.05-2.56,5.35-4.36,8.39-5.84,30-14.6,59.92-29.28,90.11-43.44,15.46-7.25,31.34-13.61,47.15-20.1a32.17,32.17,0,0,1,11.13-2.31c27-.79,53.91-.25,80.61,4.61,20.18,3.67,38.07,12.61,55.26,23.18,29,17.83,53.74,40.77,76.81,65.55a607.16,607.16,0,0,1,67.27,86.2,8.79,8.79,0,0,1,.66,6.63c-5.28,16.11-10.82,32.14-16.36,48.18-2.36,6.82-4.88,13.58-7.64,21.22a26.05,26.05,0,0,1-2.91-3.57Q823,380.74,809.88,355.55,799,334.72,788.15,313.87c-.08-.15-.12-.31-.2-.46-4.62-8.22-4.5-7.92-13.1-4.46-17.39,7-35,13.55-52.39,20.41s-34.85,13.9-52.28,20.86c-5.84,2.33-11.69,4.64-18.13,7.19C664.35,388.58,674.64,419.89,681.53,453.3ZM570.11,234.74c29.23,25.73,50.38,56.55,67.45,90.6l122.56-48c-1.93-2.73-3.15-4.72-4.63-6.48a602.88,602.88,0,0,0-78.63-78.31c-2.17-1.79-3.64-1.88-6.15-.8-20.41,8.81-40.92,17.4-61.38,26.1C596.55,223.33,583.8,228.86,570.11,234.74ZM512.58,201c13.84,5.18,26.57,11.11,38.2,19.33a5.2,5.2,0,0,0,4.1.53c4.23-1.46,8.35-3.25,12.48-5q31.41-13.19,62.79-26.41c7.11-3,14.18-6.1,21.31-9.17-.39-.77-.46-1.15-.69-1.33a6.57,6.57,0,0,0-1.68-1.05c-19.78-7.14-40.08-11.23-61.17-9a65.29,65.29,0,0,0-17.1,4.71c-8.13,3.25-16,7.24-23.91,11C535.45,190,524,195.53,512.58,201Zm-43,18.75c-29.09,5.67-42.85,28.06-58.61,48.15,6.58-2.32,12.86-5.21,19.31-7.63,9-3.36,17.23-7.5,22-16.41a41.85,41.85,0,0,1,3.15-4.42C460.05,233.1,464.6,226.77,469.63,219.75ZM290.41,287.33l-24.09,9.43c2.09,7.66,4.11,15.05,6.39,23.43L298,305.27C295.33,299,293,293.38,290.41,287.33Zm29.11,46.75L316,337.14l-12-15.86L280.88,335.1c1.92,8.77,9.22,9.94,15.33,12.49.77.32,2.19-.46,3.13-1C306.09,342.44,312.8,338.25,319.52,334.08ZM635.64,432c6.07-1.74,11.52-3.13,16.81-5,1-.35,2.2-2.85,1.84-3.81-2.52-6.72-5.44-13.29-8.37-20.25l-18,6.5ZM423.18,278.37c-8.5,4-16.95,8.09-25.52,11.95-11.36,5.12-15.36,16.76-23.22,25C394.08,307.44,410.85,295.93,423.18,278.37ZM850,350.25c-4-5.78-7.42-11-11.13-16-.73-1-2.73-2-3.69-1.7-4.49,1.53-8.82,3.53-13.65,5.55,3.73,6.16,7,11.82,10.62,17.26.5.75,2.78.95,3.93.54C840.53,354.29,844.89,352.34,850,350.25Zm-213,26c-2.48-5.85-4.7-10.8-6.64-15.85-1-2.7-2.28-3.74-5.18-2.4-3.86,1.79-7.86,3.3-12.28,5.12,2.11,5.76,4.05,11.45,6.35,17a3.94,3.94,0,0,0,3.53,1.49C627.44,380.06,632,378.15,637,376.21Zm182.48-71.65c-3.1-4.32-5.83-8.39-8.85-12.23-1.22-1.56-3.41-4-4.56-3.69-3.9,1-7.56,3-11.21,4.78-.29.14-.13,1.94.31,2.67,3.18,5.11,6.48,10.14,9.88,15.4ZM605.16,336.44,618,330.66l-8.6-15.85c-3.83,1.28-7.66,2.56-11.48,3.87-.26.09-.43.47-1,1.15ZM786.82,265c-4.46-4.51-8.15-9.85-13.25-12.67-2.42-1.34-7.52,2.13-11.39,3.46-.24.08-.37.5-.54.76,8.35,13.42,10.9,14.43,24,9.52C785.78,266,785.88,265.84,786.82,265ZM586.07,301.1l14.55-5.82c-3.15-4.26-5.83-7.93-8.59-11.54a2.05,2.05,0,0,0-1.64-.77c-3.92,1.35-7.8,2.84-11.89,4.36Zm145.84-74.9c13.63,13.4,11.9,13.26,24.32,6.44-3.66-3-7.43-5.64-10.74-8.79s-6.38-2.6-9.69-.38C734.57,224.3,733.37,225.17,731.91,226.2ZM562.06,261c3.53,10.23,9.15,11.78,17.57,4.84C572.24,255.93,570.16,255.36,562.06,261Zm164.16-53.39c-8.6-10.13-10.46-10.75-19-6.41,2,1.85,3.91,3.6,5.76,5.45C718.84,212.59,718.83,212.61,726.22,207.62ZM546.37,239.11c7.31,10,8.56,10.71,16.07,5.73C554.61,234.26,554.13,234.22,546.37,239.11Z" class="cls-1"/><path d="M283.41,118.63c-.35,23.55-3.7,46.66-11.36,68.94-5.57,16.18-11.2,32.46-18.46,47.92A293.69,293.69,0,0,1,215.9,295a267.72,267.72,0,0,1-41,41.4c-19.89,15.91-41.49,28.74-66.74,34-19.31,4-38.44,3.38-56.38-6.11-15.2-8-25.91-20.5-33-35.85C3.81,296.17,4.16,262.51,10,228.35a284.11,284.11,0,0,1,17.87-60.74c8-19.35,17.71-38,29.94-54.94a440.8,440.8,0,0,1,33.36-41.5c21.93-23.76,47.55-42.63,78.67-52.94,20.28-6.72,40.75-8.1,61.09-.17,14.18,5.54,25.19,15.12,33.52,27.75C279,67.92,283.26,92.75,283.41,118.63ZM159.15,260.09c.67,4.35.77,9.2,2.22,13.61,3.82,11.68,9.3,17.52,22.18,16.92,8.21-.38,14.82-4.42,21.1-9.13,10.94-8.22,18.55-19.19,24-31.45,5.43-12.09,8.6-24.88,6.34-38.31-2.94-17.42-16.83-27.44-34.94-17.6C174.38,208.11,163,231.59,159.15,260.09Zm97.7-157c-.52-4-.57-9.17-2-13.92-2.69-9.28-9.49-17.14-21.12-16.71a34.78,34.78,0,0,0-20.62,7.82c-20.62,16.52-32,38.08-32.78,64.65-.23,7.66,1.83,15.17,6.91,21.15,6.19,7.28,19.1,8.8,28.55,3.31C240.89,154.89,253.23,132.32,256.85,103.12ZM141.19,129.43c4.2-1.4,8.63-2.35,12.57-4.28,11.06-5.42,18.8-14.5,25-24.8,8.21-13.72,12.72-28.51,10-44.71-1.89-11.22-11.3-19-21.05-17.63-8.11,1.15-15,5-21.15,10.25C136.4,57,129.52,68,124.93,80.31c-3.82,10.21-5.8,21-2.89,31.91C124.7,122.22,131.08,129,141.19,129.43Zm5.52,156.92a122.36,122.36,0,0,0-2.14-12.61A18,18,0,0,0,126,260.34c-11.64.6-19.82,7.66-27.29,15.53-9,9.53-14.3,21.21-17.69,33.76-2.13,7.9-2.72,15.85-.4,23.86,5.42,18.75,21,18.23,31.79,11.53C133.34,332,144.32,312.39,146.71,286.35ZM106.58,137.67a38.12,38.12,0,0,0,0-4.9C104.9,120,96.43,110.61,82,117.91c-9.69,4.89-16,13-21.58,21.93-8.75,14.22-14,29.2-11.58,46.28,2,13.9,13,19.84,24.78,12.35C95.76,184.4,104.29,162.63,106.58,137.67Zm-77,137.81c.7,3.33,1.21,8.12,2.75,12.56,2.55,7.39,7.95,11.21,14.61,9.93a33.26,33.26,0,0,0,13.16-5.25c14.72-10.82,23.41-25.83,26.65-43.56a55.2,55.2,0,0,0-.57-20.92c-2.46-11.57-15.9-15.11-27-7.27C40.94,233.86,32.31,252.25,29.59,275.48Zm90.17-69.18c.85,1.38,1.89,4.8,4.2,6.43,3.34,2.36,6.71-.09,9.28-2.52,6.85-6.5,10.74-14.56,10.51-24a10.69,10.69,0,0,0-4.2-7.64c-1.55-1-5.56.14-7.48,1.61C124.23,186.22,120.6,194.65,119.76,206.3Zm26.58,4.82c1,2,1.38,4.09,2.49,4.59s3.32-.32,4.19-1.31c2-2.29,4.18-4.85,5.06-7.68.58-1.87-.94-4.4-1.52-6.63-1.84.74-4.3,1-5.36,2.33C149.15,205,147.9,208.2,146.34,211.12Zm-26-32c-1.08-1.91-1.57-3.93-2.49-4.15-1.34-.32-3.85.21-4.35,1.16a67,67,0,0,0-4.46,11.16c-.25.79,1,2.82,1.81,3,1.24.26,3.39-.16,4-1.06C117,186,118.55,182.5,120.35,179.1ZM101,217.7l1.17.78c-.18,3.94,1.47,5.52,4.31,4.11,3.24-1.62,6.75-9.25,5.82-12.79-.72-2.79-2.35-4.55-4.73-1.82C105,210.91,103.13,214.43,101,217.7Zm44.81-61.6c-1.15-2.27-1.54-4.17-2.69-4.92-.74-.48-2.81.46-3.9,1.27-4.14,3.1-4.85,7.87-4.64,12.43.12,2.47,3.1,3.42,4.87,1.24C141.92,163,143.74,159.39,145.78,156.1ZM131,227.41c-1-2.2-1.33-3.94-2.38-5-.53-.52-3.06-.16-3.42.5a84.82,84.82,0,0,0-5.46,11.72c-.3.8,1.12,2.77,2.21,3.37.68.38,2.69-.45,3.3-1.31C127.35,233.72,129.13,230.47,131,227.41Zm21.17-50.67c.84,3.88,2.44,5.42,5.54,4.35,3.29-1.14,6.7-9.74,5.66-13.2-.84-2.8-2.88-3.71-4.64-1.57C156.12,169.46,154.3,173.24,152.15,176.74Z" class="cls-1"/><path d="M281.28,33.48c7.75,3,13.33,7.81,18.6,12.93,19.48,18.94,27.41,42.76,28.74,69.21a178.61,178.61,0,0,1-8.4,63.19c-5.15,16.28-11.45,32.19-17.3,48.24a16,16,0,0,1-1.94,3c-5-4.6-9.77-8.88-14.35-13.37a4.74,4.74,0,0,1-.84-3.68c4.35-23.27,9.83-46.38,13-69.8,3.24-24.18,1.09-48.47-5.48-72.07-3.26-11.7-7.69-23.07-11.57-34.59A21.39,21.39,0,0,1,281.28,33.48Z" class="cls-1"/><path d="M173.94,362.06c20-20.76,39.64-41.12,59.9-62.15,1.77,5.94,3.56,11.3,4.83,16.78.28,1.22-.93,3.21-2,4.25-17.83,17-37.58,31.24-60.44,40.85A9.27,9.27,0,0,1,173.94,362.06Z" class="cls-1"/></svg>